<?xml version="1.0" standalone="no"?>
<!DOCTYPE svg PUBLIC "-//W3C//DTD SVG 20010904//EN"
 "http://www.w3.org/TR/2001/REC-SVG-20010904/DTD/svg10.dtd">
<svg version="1.0" xmlns="http://www.w3.org/2000/svg"
 width="474.000000pt" height="97.000000pt" viewBox="0 0 474.000000 97.000000"
 preserveAspectRatio="xMidYMid meet">

<g transform="translate(0.000000,97.000000) scale(0.100000,-0.100000)"
fill="#000000" stroke="none">
<path d="M4220 855 c0 -10 10 -15 30 -15 l30 0 0 -85 c0 -78 2 -85 20 -85 18
0 20 7 20 85 l0 85 30 0 c20 0 30 5 30 15 0 12 -16 15 -80 15 -64 0 -80 -3
-80 -15z"/>
<path d="M4410 770 c0 -82 3 -100 15 -100 12 0 15 14 15 70 0 39 4 70 8 70 4
0 16 -31 26 -70 14 -54 22 -70 36 -70 13 0 22 16 36 70 10 39 22 70 26 70 5 0
8 -30 6 -67 -3 -58 0 -68 15 -71 15 -3 17 7 17 98 l0 101 -32 -3 c-31 -3 -34
-7 -48 -60 -15 -56 -30 -85 -30 -56 0 8 -7 38 -15 66 -14 47 -18 52 -45 52
l-30 0 0 -100z"/>
<path d="M180 470 l0 -300 55 0 55 0 0 300 0 300 -55 0 -55 0 0 -300z"/>
<path d="M890 720 l0 -50 90 0 90 0 0 -250 0 -251 58 3 57 3 2 249 2 249 85
-2 86 -2 0 50 0 51 -235 0 -235 0 0 -50z"/>
<path d="M1680 470 l0 -300 55 0 55 0 0 195 c0 123 4 195 10 195 6 0 10 -4 10
-10 0 -5 19 -40 43 -77 24 -37 76 -121 116 -186 l73 -117 59 0 59 0 0 300 0
300 -55 0 -55 0 0 -197 c-1 -233 15 -236 -143 21 l-108 176 -60 0 -59 0 0
-300z"/>
<path d="M3040 720 l0 -51 57 3 58 3 1 48 1 47 -58 0 -59 0 0 -50z"/>
<path d="M2818 722 c-44 -25 -47 -30 -50 -72 -3 -41 -6 -45 -30 -48 -25 -3
-28 -7 -28 -42 0 -35 3 -39 28 -42 l27 -3 5 -151 c4 -107 9 -156 19 -167 32
-40 177 -43 175 -4 -3 69 -3 69 -26 64 -12 -3 -30 -2 -40 4 -16 9 -18 24 -18
134 l0 125 41 0 40 0 -3 42 c-3 41 -4 43 -38 43 l-35 0 -3 73 c-2 39 -6 72
-10 72 -4 0 -28 -13 -54 -28z"/>
<path d="M505 589 c-56 -30 -74 -47 -96 -96 -23 -52 -25 -149 -3 -201 34 -83
101 -124 204 -125 110 0 184 53 215 155 8 29 15 59 15 68 0 9 -7 39 -15 68
-31 102 -101 151 -215 152 -47 0 -76 -6 -105 -21z m162 -81 c30 -15 53 -67 53
-118 0 -87 -56 -149 -125 -136 -114 22 -130 214 -22 261 32 14 54 13 94 -7z"/>
<path d="M2348 589 c-34 -17 -68 -62 -68 -87 0 -6 20 -13 44 -16 39 -6 47 -4
70 19 42 42 122 32 139 -17 10 -28 -15 -43 -104 -62 -108 -23 -145 -45 -161
-98 -27 -90 35 -163 137 -162 48 1 112 25 127 48 4 6 11 -1 17 -17 10 -25 15
-27 65 -27 l54 0 -14 47 c-9 29 -14 93 -14 174 0 70 -4 139 -10 153 -5 14 -24
35 -42 46 -46 28 -187 28 -240 -1z m184 -249 c-5 -56 -12 -69 -42 -85 -40 -21
-70 -19 -97 7 -44 41 -20 80 64 103 69 19 79 16 75 -25z"/>
<path d="M3052 602 c-9 -3 -12 -61 -12 -218 l0 -214 55 0 55 0 1 198 c0 108 2
205 4 215 2 10 -3 17 -13 18 -10 0 -31 2 -48 3 -16 1 -35 1 -42 -2z"/>
<path d="M3380 594 c-50 -22 -79 -52 -106 -109 -32 -67 -31 -131 2 -200 33
-71 80 -103 172 -119 128 -22 252 88 252 224 0 91 -63 186 -138 208 -54 16
-140 14 -182 -4z m170 -99 c47 -42 46 -161 -1 -211 -47 -50 -132 -36 -164 27
-22 42 -21 121 2 161 32 56 114 67 163 23z"/>
<path d="M3818 603 l-28 -4 0 -215 0 -215 58 3 57 3 2 125 c1 69 2 135 3 148
0 13 13 37 29 53 35 34 77 38 112 10 23 -19 24 -25 27 -180 l4 -161 54 0 54 0
0 165 c0 193 -10 232 -66 258 -19 10 -58 17 -87 17 -43 0 -61 -6 -94 -30 l-42
-31 -3 28 c-3 30 -21 35 -80 26z"/>
</g>
</svg>
