<?xml version="1.0" encoding="UTF-8"?>
<!DOCTYPE svg PUBLIC "-//W3C//DTD SVG 1.1//EN" "http://www.w3.org/Graphics/SVG/1.1/DTD/svg11.dtd">
<svg xmlns="http://www.w3.org/2000/svg" version="1.1" width="200px" height="200px" style="shape-rendering:geometricPrecision; text-rendering:geometricPrecision; image-rendering:optimizeQuality; fill-rule:evenodd; clip-rule:evenodd" xmlns:xlink="http://www.w3.org/1999/xlink">
<g><path style="opacity:1" fill="#990402" d="M -0.5,-0.5 C 66.1667,-0.5 132.833,-0.5 199.5,-0.5C 199.5,66.1667 199.5,132.833 199.5,199.5C 132.833,199.5 66.1667,199.5 -0.5,199.5C -0.5,132.833 -0.5,66.1667 -0.5,-0.5 Z"/></g>
<g><path style="opacity:1" fill="#e5b6b2" d="M 91.5,18.5 C 86.3839,19.8063 81.0506,20.473 75.5,20.5C 80.598,19.0427 85.9313,18.376 91.5,18.5 Z"/></g>
<g><path style="opacity:1" fill="#fdfdfc" d="M 91.5,18.5 C 94.1667,18.5 96.8333,18.5 99.5,18.5C 99.5,73.8333 99.5,129.167 99.5,184.5C 59.711,173.211 36.211,147.211 29,106.5C 28.3333,82.8333 28.3333,59.1667 29,35.5C 43.4896,27.3924 58.9896,22.3924 75.5,20.5C 81.0506,20.473 86.3839,19.8063 91.5,18.5 Z"/></g>
<g><path style="opacity:1" fill="#f9f3f2" d="M 109.5,18.5 C 110.701,32.5139 112.035,46.5139 113.5,60.5C 113.45,66.3895 114.116,72.0562 115.5,77.5C 116.843,92.9132 118.843,108.247 121.5,123.5C 122.549,139.727 124.216,155.894 126.5,172C 124.278,175.123 121.278,177.29 117.5,178.5C 115.89,175.797 114.89,172.797 114.5,169.5C 111.375,119.16 108.375,68.8268 105.5,18.5C 106.833,18.5 108.167,18.5 109.5,18.5 Z"/></g>
<g><path style="opacity:1" fill="#fcfaf9" d="M 145.5,24.5 C 154.121,27.3061 162.455,30.9728 170.5,35.5C 170.83,51.0091 170.496,66.3424 169.5,81.5C 160.498,62.8288 151.498,44.1621 142.5,25.5C 143.325,24.6143 144.325,24.281 145.5,24.5 Z"/></g>
<g><path style="opacity:1" fill="#9d140d" d="M 109.5,18.5 C 112.192,18.5641 114.859,18.8974 117.5,19.5C 116.5,19.5 115.5,19.5 114.5,19.5C 119.827,50.1156 124.827,80.7823 129.5,111.5C 128.883,111.389 128.383,111.056 128,110.5C 124.765,114.303 122.599,118.636 121.5,123.5C 118.843,108.247 116.843,92.9132 115.5,77.5C 115.55,71.6105 114.884,65.9438 113.5,60.5C 112.035,46.5139 110.701,32.5139 109.5,18.5 Z"/></g>
<g><path style="opacity:1" fill="#b84e4a" d="M 170.5,35.5 C 171.827,51.3383 171.827,67.3383 170.5,83.5C 169.893,83.3764 169.56,83.0431 169.5,82.5C 169.5,82.1667 169.5,81.8333 169.5,81.5C 170.496,66.3424 170.83,51.0091 170.5,35.5 Z"/></g>
<g><path style="opacity:1" fill="#f9f3f2" d="M 117.5,19.5 C 118.167,19.5 118.5,19.8333 118.5,20.5C 127.724,64.3847 137.391,108.051 147.5,151.5C 147.662,153.527 147.495,155.527 147,157.5C 144.611,159.394 142.444,161.394 140.5,163.5C 139.833,162.833 139.167,162.167 138.5,161.5C 135.78,144.655 132.78,127.988 129.5,111.5C 124.827,80.7823 119.827,50.1156 114.5,19.5C 115.5,19.5 116.5,19.5 117.5,19.5 Z"/></g>
<g><path style="opacity:1" fill="#9d1611" d="M 145.5,24.5 C 144.325,24.281 143.325,24.6143 142.5,25.5C 151.498,44.1621 160.498,62.8288 169.5,81.5C 169.5,81.8333 169.5,82.1667 169.5,82.5C 168.312,83.0476 167.145,83.3809 166,83.5C 166.305,81.5568 166.305,79.5568 166,77.5C 165.444,79.5951 164.944,79.7618 164.5,78C 164.735,77.1268 165.069,76.2935 165.5,75.5C 164.47,75.4455 163.303,75.1122 162,74.5C 161.505,72.5273 161.338,70.5273 161.5,68.5C 159.602,67.9035 157.935,67.9035 156.5,68.5C 149.988,54.8002 143.988,40.8002 138.5,26.5C 140.048,26.1788 140.715,25.1788 140.5,23.5C 142.415,23.2155 144.081,23.5489 145.5,24.5 Z"/></g>
<g><path style="opacity:1" fill="#f8f0ee" d="M 126.5,20.5 C 128.204,23.9385 129.538,27.6052 130.5,31.5C 140.36,61.9653 150.36,92.2986 160.5,122.5C 160.954,126.149 161.954,129.649 163.5,133C 161.966,135.899 160.299,138.733 158.5,141.5C 157.743,142.773 157.077,142.773 156.5,141.5C 145.696,101.093 134.696,60.7596 123.5,20.5C 124.5,20.5 125.5,20.5 126.5,20.5 Z"/></g>
<g><path style="opacity:1" fill="#e1b4b1" d="M 113.5,60.5 C 114.884,65.9438 115.55,71.6105 115.5,77.5C 114.116,72.0562 113.45,66.3895 113.5,60.5 Z"/></g>
<g><path style="opacity:1" fill="#f8efee" d="M 138.5,26.5 C 143.988,40.8002 149.988,54.8002 156.5,68.5C 160.896,79.5163 165.396,90.5163 170,101.5C 170.263,105.835 170.097,110.168 169.5,114.5C 168.25,114.423 167.417,113.756 167,112.5C 156.044,84.4512 145.21,56.4512 134.5,28.5C 133.545,26.2543 132.878,23.921 132.5,21.5C 135.744,21.7492 137.744,23.4159 138.5,26.5 Z"/></g>
<g><path style="opacity:1" fill="#9d1610" d="M 65.5,75.5 C 67.8966,78.309 69.2299,81.6424 69.5,85.5C 73.5138,85.3345 77.5138,85.5012 81.5,86C 78.1283,88.0383 75.4616,90.705 73.5,94C 74.6575,97.1135 75.1575,100.28 75,103.5C 72.079,101.623 69.2456,99.6229 66.5,97.5C 63.328,99.2519 60.328,101.252 57.5,103.5C 57.1667,103 56.8333,102.5 56.5,102C 57.838,98.8674 58.6713,95.7008 59,92.5C 56.1667,90.3333 53.3333,88.1667 50.5,86C 54.4862,85.5012 58.4862,85.3345 62.5,85.5C 63.1009,82.0321 64.1009,78.6988 65.5,75.5 Z"/></g>
<g><path style="opacity:1" fill="#9c110c" d="M 134.5,28.5 C 145.21,56.4512 156.044,84.4512 167,112.5C 167.417,113.756 168.25,114.423 169.5,114.5C 169.631,115.376 169.298,116.043 168.5,116.5C 167.109,115.355 165.776,115.355 164.5,116.5C 165.833,117.62 166.333,118.953 166,120.5C 164.883,120.335 163.716,120.002 162.5,119.5C 161.575,120.357 160.908,121.357 160.5,122.5C 150.36,92.2986 140.36,61.9653 130.5,31.5C 131.822,31.33 132.989,31.6634 134,32.5C 134.49,31.2068 134.657,29.8734 134.5,28.5 Z"/></g>
<g><path style="opacity:1" fill="#9c100a" d="M 126.5,20.5 C 125.5,20.5 124.5,20.5 123.5,20.5C 134.696,60.7596 145.696,101.093 156.5,141.5C 155.778,141.918 155.278,142.584 155,143.5C 153.221,142.521 151.555,142.854 150,144.5C 148.587,146.652 147.754,148.986 147.5,151.5C 137.391,108.051 127.724,64.3847 118.5,20.5C 121.211,20.4561 123.877,20.4561 126.5,20.5 Z"/></g>
<g><path style="opacity:1" fill="#c98682" d="M 138.5,161.5 C 139.167,162.167 139.833,162.833 140.5,163.5C 140.44,164.043 140.107,164.376 139.5,164.5C 138.614,163.675 138.281,162.675 138.5,161.5 Z"/></g>
<g><path style="opacity:1" fill="#ca7e7d" d="M 114.5,169.5 C 114.89,172.797 115.89,175.797 117.5,178.5C 116.791,179.404 115.791,179.737 114.5,179.5C 114.5,176.167 114.5,172.833 114.5,169.5 Z"/></g>
</svg>
